# xmcd
#
# Track frame offsets:
# 150
# 17256
# 25500
# 38477
# 57164
# 74715
# 102060
# 121732
# 139486
# 157269
# 175864
# 189062
# 203919
# 227389
# 243469
# 265601
# 282283
# 317133
# 334566
#
# Disc length: 4713 seconds
#
# Revision: 0
# Processed by: cddbd v1.5.2PL0 Copyright (c) Steve Scherf et al.
# Submitted via: Audion 3.0.2 (http://www.panic.com/audion/)
#
DISCID=f8126713
DTITLE=Vico C - Disco Platino
DYEAR=1900
DGENRE=
TTITLE0=Despues de la caida
TTITLE1=Intro
TTITLE2=Peligo
TTITLE3=Y ahora que?
TTITLE4=Abusando
TTITLE5=La niña modelo
TTITLE6=Emboscada
TTITLE7=Los parros
TTITLE8=El lente del cielo
TTITLE9=La movida
TTITLE10=Crack
TTITLE11=Danza
TTITLE12=La recta final
TTITLE13=Dandole vida
TTITLE14=Aquel que habia muerto
TTITLE15=Quieren
TTITLE16=Cosa nuestra de barrio
TTITLE17=Tony presidio
TTITLE18=El super heroe
EXTD=
EXTT0=
EXTT1=
EXTT2=
EXTT3=
EXTT4=
EXTT5=
EXTT6=
EXTT7=
EXTT8=
EXTT9=
EXTT10=
EXTT11=
EXTT12=
EXTT13=
EXTT14=
EXTT15=
EXTT16=
EXTT17=
EXTT18=
PLAYORDER=
